<svg xmlns="http://www.w3.org/2000/svg" viewBox="0 0 64 64">
  <g fill="none" fill-rule="evenodd">
    <path fill="#FFF5CC" stroke="#5B2D6C" stroke-width="2.8" stroke-linecap="round" stroke-linejoin="round" d="M32 10c3.6 0 6.5 2.7 6.5 6.1 0 1.4-.5 2.6-1.4 3.7 5.3 2.4 9.2 7.5 9.2 13.6 0 4.2-1.8 8-4.7 10.7l3 7H19.4l3-7a14.37 14.37 0 0 1-4.7-10.7c0-6.1 3.9-11.2 9.2-13.6-.9-1.1-1.4-2.3-1.4-3.7 0-3.4 2.9-6.1 6.5-6.1Z"/>
    <path stroke="#5B2D6C" stroke-width="2.8" stroke-linecap="round" stroke-linejoin="round" d="M25.7 41.3c2.2 1.5 4.4 2.2 6.3 2.2s4.1-.7 6.3-2.2M27.3 32.7c1.7-4.4 3.8-6.6 4.7-6.6.9 0 3 2.2 4.7 6.6M25 54h14"/>
    <circle cx="32" cy="8" r="2.4" fill="#E7C35C" stroke="#5B2D6C" stroke-width="2"/>
  </g>
</svg>
