<svg xmlns="http://www.w3.org/2000/svg" viewBox="0 0 1600 1000">
  <defs>
    <linearGradient id="g1" x1="0" y1="0" x2="1" y2="1"><stop stop-color="#7c3aed" stop-opacity=".42"/><stop offset="1" stop-color="#fb923c" stop-opacity=".28"/></linearGradient>
    <radialGradient id="g2"><stop stop-color="#ffffff" stop-opacity=".65"/><stop offset="1" stop-color="#ffffff" stop-opacity="0"/></radialGradient>
    <filter id="blur"><feGaussianBlur stdDeviation="28"/></filter>
  </defs>
  <path d="M-120 190C180-60 470-40 760 160S1270 390 1710 90V-120H-120Z" fill="url(#g1)" opacity=".55"/>
  <circle cx="260" cy="250" r="190" fill="url(#g2)" filter="url(#blur)"/>
  <circle cx="1330" cy="210" r="220" fill="url(#g2)" filter="url(#blur)"/>
  <g fill="none" stroke="#6d28d9" stroke-width="10" opacity=".11">
    <rect x="85" y="625" width="220" height="145" rx="28"/>
    <circle cx="195" cy="697" r="48"/>
    <path d="M145 625l22-34h72l25 34M305 666l65-42v146l-65-38"/>
  </g>
  <g fill="none" stroke="#f97316" stroke-width="11" opacity=".1" transform="translate(1180 570)">
    <rect x="0" y="70" width="92" height="210" rx="45"/>
    <path d="M46 0v70M-38 165c0 75 38 113 84 113s84-38 84-113M46 278v72M-15 350h122"/>
  </g>
  <g fill="#7c3aed" opacity=".07">
    <circle cx="470" cy="835" r="16"/><circle cx="1110" cy="790" r="12"/><circle cx="1460" cy="470" r="18"/>
  </g>
</svg>
